<svg width="120" height="120" viewBox="0 0 120 120" fill="none" xmlns="http://www.w3.org/2000/svg">
<g clip-path="url(#clip0_1_204)">
<path fill-rule="evenodd" clip-rule="evenodd" d="M120 26.0001V94.0001C120.007 97.4163 119.339 100.8 118.035 103.958C116.731 107.115 114.816 109.984 112.4 112.4C109.984 114.816 107.115 116.731 103.958 118.035C100.8 119.339 97.4163 120.007 94.0001 120H26.0001C22.5838 120.007 19.1998 119.339 16.0422 118.035C12.8847 116.731 10.0157 114.816 7.60005 112.4C5.18437 109.984 3.26949 107.115 1.96528 103.958C0.661078 100.8 -0.0067736 97.4163 5.17919e-05 94.0001V26.0001C-0.0067736 22.5838 0.661078 19.1998 1.96528 16.0422C3.26949 12.8847 5.18437 10.0157 7.60005 7.60005C10.0157 5.18437 12.8847 3.26949 16.0422 1.96528C19.1998 0.661078 22.5838 -0.0067736 26.0001 5.17919e-05H94.0001C97.4163 -0.0067736 100.8 0.661078 103.958 1.96528C107.115 3.26949 109.984 5.18437 112.4 7.60005C114.816 10.0157 116.731 12.8847 118.035 16.0422C119.339 19.1998 120.007 22.5838 120 26.0001Z" fill="url(#paint0_linear_1_204)"/>
<path fill-rule="evenodd" clip-rule="evenodd" d="M82.6 69H97.5C98.9587 69 100.358 69.5795 101.389 70.6109C102.421 71.6424 103 73.0413 103 74.5C103 75.9587 102.421 77.3576 101.389 78.3891C100.358 79.4205 98.9587 80 97.5 80H82.6V69Z" fill="white"/>
<path fill-rule="evenodd" clip-rule="evenodd" d="M64.3 69C65.3392 68.9938 66.3693 69.1939 67.3305 69.5887C68.2918 69.9835 69.1652 70.5652 69.9 71.3C70.6348 72.0348 71.2165 72.9082 71.6113 73.8695C72.0061 74.8307 72.2062 75.8608 72.2 76.9C72.204 77.9626 72.0002 79.0157 71.6 80H22.5C21.0413 80 19.6424 79.4205 18.6109 78.3891C17.5795 77.3576 17 75.9587 17 74.5C17 73.0413 17.5795 71.6424 18.6109 70.6109C19.6424 69.5795 21.0413 69 22.5 69H64.3ZM62.9 32.8V42.4H56.5L48.7 29C48.3574 28.409 48.1347 27.7562 48.0445 27.0791C47.9544 26.4019 47.9987 25.7137 48.1748 25.0536C48.3509 24.3936 48.6554 23.7747 49.0709 23.2325C49.4864 22.6903 50.0047 22.2352 50.5962 21.8935C51.1877 21.5517 51.8408 21.33 52.5181 21.2408C53.1954 21.1517 53.8836 21.1969 54.5434 21.374C55.2032 21.5511 55.8215 21.8565 56.3632 22.2728C56.9048 22.689 57.3591 23.208 57.7 23.8L62.9 32.8ZM68.4 42.1L95.7 89.4C96.4293 90.6598 96.6284 92.1577 96.2533 93.5642C95.8782 94.9707 94.9598 96.1707 93.7 96.9C92.4402 97.6293 90.9423 97.8284 89.5358 97.4533C88.1293 97.0782 86.9293 96.1598 86.2 94.9L69.7 66.2C68.2 63.4 67.1 61.2 66.4 60C64.7566 57.2002 64.0634 53.9438 64.4239 50.7175C64.7844 47.4911 66.1792 44.468 68.4 42.1Z" fill="white"/>
<path fill-rule="evenodd" clip-rule="evenodd" d="M46 74H33.3L62 24.3C62.7293 23.0402 63.9292 22.1218 65.3358 21.7467C66.7423 21.3716 68.2402 21.5707 69.5 22.3C70.7598 23.0294 71.6782 24.2293 72.0533 25.6358C72.4283 27.0423 72.2293 28.5402 71.5 29.8L46 74ZM39.3 85.5L34 94.8C33.6388 95.4238 33.1584 95.9703 32.586 96.4084C32.0137 96.8465 31.3606 97.1676 30.6642 97.3533C29.9678 97.539 29.2416 97.5857 28.5271 97.4908C27.8126 97.3959 27.1238 97.1611 26.5 96.8C25.8762 96.4389 25.3297 95.9584 24.8916 95.3861C24.4535 94.8137 24.1324 94.1607 23.9467 93.4642C23.761 92.7678 23.7142 92.0416 23.8092 91.3271C23.9041 90.6126 24.1388 89.9238 24.5 89.3L28.4 82.5C29.6111 81.8974 30.9473 81.589 32.3 81.6C33.7108 81.5537 35.1077 81.8922 36.3408 82.5792C37.574 83.2663 38.5969 84.2759 39.3 85.5Z" fill="white"/>
</g>
<defs>
<linearGradient id="paint0_linear_1_204" x1="59.9991" y1="120" x2="59.9991" y2="5.72205e-05" gradientUnits="userSpaceOnUse">
<stop stop-color="#1D6FF2"/>
<stop offset="1" stop-color="#1AC8FC"/>
</linearGradient>
<clipPath id="clip0_1_204">
<rect width="120" height="120" fill="white"/>
</clipPath>
</defs>
</svg>
