<svg width="120" height="120" viewBox="0 0 120 120" fill="none" xmlns="http://www.w3.org/2000/svg">
<g clip-path="url(#clip0_1_392)">
<path fill-rule="evenodd" clip-rule="evenodd" d="M93.9996 120H25.9996C22.5833 120.007 19.1993 119.339 16.0417 118.035C12.8842 116.731 10.0152 114.816 7.59956 112.4C5.18388 109.984 3.269 107.115 1.96479 103.958C0.660587 100.8 -0.00726318 97.4163 -0.000436469 94V26C-0.00726318 22.5837 0.660587 19.1997 1.96479 16.0422C3.269 12.8846 5.18388 10.0157 7.59956 7.60001C10.0152 5.18432 12.8842 3.26944 16.0417 1.96523C19.1993 0.66103 22.5833 -0.00682068 25.9996 6.03562e-06H93.9996C97.4158 -0.00682068 100.8 0.66103 103.957 1.96523C107.115 3.26944 109.984 5.18432 112.4 7.60001C114.815 10.0157 116.73 12.8846 118.034 16.0422C119.339 19.1997 120.006 22.5837 120 26V94C120.006 97.4163 119.339 100.8 118.034 103.958C116.73 107.115 114.815 109.984 112.4 112.4C109.984 114.816 107.115 116.731 103.957 118.035C100.8 119.339 97.4158 120.007 93.9996 120Z" fill="#D8D6CC"/>
<path fill-rule="evenodd" clip-rule="evenodd" d="M119.997 92.8746V93.9946C120.007 97.5243 119.295 101.019 117.905 104.263C116.516 107.508 114.478 110.435 111.917 112.864C110.692 114.035 109.352 115.081 107.917 115.984V92.8746H119.997Z" fill="#4CD964"/>
<path d="M120 62.873H107.914V92.873H120V62.873Z" fill="#FF9500"/>
<path d="M120 32.873H107.914V62.873H120V32.873Z" fill="#5AC8FA"/>
<path d="M120 32.873H107.914V42.873H120V32.873Z" fill="url(#paint0_linear_1_392)"/>
<path d="M120.001 62.874H107.915V72.874H120.001V62.874Z" fill="url(#paint1_linear_1_392)"/>
<path fill-rule="evenodd" clip-rule="evenodd" d="M107.914 92.8746V100.875H119.058C119.676 98.6352 119.993 96.3233 120 94V92.8746H107.914Z" fill="url(#paint2_linear_1_392)"/>
<path fill-rule="evenodd" clip-rule="evenodd" d="M120 26C120.007 21.6165 118.902 17.3028 116.788 13.4624C114.674 9.62213 111.621 6.38069 107.914 4.04135V32.8733H120L120 26Z" fill="#C4C2BA"/>
<path d="M56.1842 99.9975C63.6065 100.005 70.8642 97.8111 77.0392 93.693C83.2142 89.575 88.0291 83.7179 90.8746 76.8629C93.7202 70.0078 94.4687 62.4627 93.0253 55.1822C91.5819 47.9017 88.0116 41.2129 82.766 35.9619C77.5203 30.711 70.8351 27.1338 63.5561 25.683C56.2771 24.2323 48.7313 24.9731 41.8733 27.8117C35.0154 30.6503 29.1534 35.4592 25.0291 41.63C20.9048 47.8009 18.7034 55.0563 18.7034 62.4785C18.7396 72.4115 22.6989 81.9278 29.719 88.955C36.7391 95.9823 46.2514 99.9512 56.1842 99.9975ZM56.1842 75.0231C43.4102 75.0231 33.887 80.9511 30.8656 86.0379C26.2783 81.1037 23.2316 74.9375 22.0994 68.2962C20.9673 61.6549 21.799 54.8275 24.4924 48.6522C27.1858 42.4769 31.6237 37.2224 37.2614 33.5338C42.899 29.8452 49.491 27.883 56.2282 27.8881C62.9653 27.8932 69.5543 29.8653 75.1864 33.5624C80.8185 37.2595 85.2485 42.5207 87.9326 48.7001C90.6167 54.8794 91.438 61.7081 90.2958 68.3477C89.1537 74.9873 86.0976 81.1489 81.5029 86.0761C78.4815 80.9511 68.9966 75.0231 56.1842 75.0231ZM56.1842 68.4066C63.5274 68.4066 69.1495 62.1725 69.1495 54.0261C69.1495 46.377 63.4127 39.9517 56.1842 39.9517C48.994 39.9517 43.2189 46.377 43.2572 54.0261C43.2572 62.1725 48.8793 68.3683 56.1842 68.4066Z" fill="#A9A29A"/>
<path fill-rule="evenodd" clip-rule="evenodd" d="M107.917 115.956C110.174 114.532 112.198 112.769 113.917 110.729V9.27087C112.198 7.23074 110.174 5.46764 107.917 4.04358V115.956Z" fill="url(#paint3_linear_1_392)"/>
</g>
<defs>
<linearGradient id="paint0_linear_1_392" x1="113.957" y1="32.807" x2="113.957" y2="42.245" gradientUnits="userSpaceOnUse">
<stop stop-opacity="0.3"/>
<stop offset="1" stop-color="white" stop-opacity="0"/>
</linearGradient>
<linearGradient id="paint1_linear_1_392" x1="113.958" y1="62.639" x2="113.958" y2="72.831" gradientUnits="userSpaceOnUse">
<stop stop-opacity="0.2"/>
<stop offset="1" stop-color="white" stop-opacity="0"/>
</linearGradient>
<linearGradient id="paint2_linear_1_392" x1="113.957" y1="92.875" x2="113.957" y2="100.46" gradientUnits="userSpaceOnUse">
<stop stop-opacity="0.2"/>
<stop offset="1" stop-color="white" stop-opacity="0"/>
</linearGradient>
<linearGradient id="paint3_linear_1_392" x1="107.918" y1="60" x2="113.918" y2="60" gradientUnits="userSpaceOnUse">
<stop stop-opacity="0.2"/>
<stop offset="1" stop-color="white" stop-opacity="0"/>
</linearGradient>
<clipPath id="clip0_1_392">
<rect width="120" height="120" fill="white"/>
</clipPath>
</defs>
</svg>
