<svg width="120" height="120" viewBox="0 0 120 120" fill="none" xmlns="http://www.w3.org/2000/svg">
<g clip-path="url(#clip0_1_1311)">
<path fill-rule="evenodd" clip-rule="evenodd" d="M5.17919e-05 94.05V26.05C-0.0067736 22.6337 0.661078 19.2497 1.96528 16.0922C3.26949 12.9346 5.18437 10.0657 7.60005 7.65C10.0157 5.23432 12.8847 3.31944 16.0422 2.01523C19.1998 0.711026 22.5838 0.0431746 26.0001 0.05H94.0001C97.4163 0.0431746 100.8 0.711026 103.958 2.01523C107.115 3.31944 109.984 5.23432 112.4 7.65C114.816 10.0657 116.731 12.9346 118.035 16.0922C119.339 19.2497 120.007 22.6337 120 26.05V94.05C120.007 97.4663 119.339 100.85 118.035 104.008C116.731 107.165 114.816 110.034 112.4 112.45C109.984 114.866 107.115 116.781 103.958 118.085C100.8 119.389 97.4163 120.057 94.0001 120.05H26.0001C19.1054 120.047 12.494 117.307 7.61879 112.431C2.74353 107.556 0.00323174 100.945 5.17919e-05 94.05Z" fill="white"/>
<path fill-rule="evenodd" clip-rule="evenodd" d="M22 25.25H35.5C37.4728 25.2326 39.3745 25.9861 40.8 27.35C43.9 30.15 46 31.65 47.3 31.65C48.5 31.65 41.9 37.25 27.4 48.45C26.1862 49.3839 24.7352 49.9591 23.2112 50.1107C21.6873 50.2622 20.1514 49.9839 18.7774 49.3074C17.4035 48.6308 16.2465 47.583 15.4375 46.2827C14.6285 44.9824 14.1998 43.4815 14.2 41.95V33.15C14.191 32.1185 14.3859 31.0953 14.7735 30.1393C15.1611 29.1833 15.7337 28.3133 16.4585 27.5793C17.1833 26.8452 18.0459 26.2615 18.9969 25.8618C19.9479 25.4621 20.9684 25.2542 22 25.25Z" fill="#1AA6F7"/>
<path fill-rule="evenodd" clip-rule="evenodd" d="M39.3 31.55H98C100.068 31.5526 102.05 32.3753 103.513 33.8375C104.975 35.2997 105.797 37.2821 105.8 39.35V56.95C105.797 59.0179 104.975 61.0003 103.513 62.4625C102.05 63.9247 100.068 64.7474 98 64.75H39.3C37.2321 64.7474 35.2497 63.9247 33.7875 62.4625C32.3253 61.0003 31.5026 59.0179 31.5 56.95V39.35C31.5196 37.2874 32.3477 35.3148 33.8062 33.8562C35.2648 32.3977 37.2374 31.5696 39.3 31.55Z" fill="#1AA6F7"/>
<path fill-rule="evenodd" clip-rule="evenodd" d="M20.9001 36.35H99.1001C99.3497 36.3498 99.5968 36.3989 99.8274 36.4943C100.058 36.5897 100.268 36.7296 100.444 36.9061C100.62 37.0826 100.76 37.2921 100.856 37.5227C100.951 37.7533 101 38.0004 101 38.25V67.55C101 67.7996 100.951 68.0467 100.856 68.2773C100.76 68.5079 100.62 68.7174 100.444 68.8939C100.268 69.0704 100.058 69.2103 99.8274 69.3057C99.5968 69.4011 99.3497 69.4502 99.1001 69.45H20.9001C20.6505 69.4502 20.4034 69.4011 20.1728 69.3057C19.9422 69.2103 19.7327 69.0704 19.5562 68.8939C19.3798 68.7174 19.2398 68.5079 19.1444 68.2773C19.049 68.0467 18.9999 67.7996 19.0001 67.55V38.25C18.983 37.9961 19.0205 37.7414 19.1099 37.5032C19.1994 37.2649 19.3388 37.0486 19.5187 36.8686C19.6987 36.6887 19.915 36.5493 20.1533 36.4598C20.3916 36.3704 20.6462 36.3329 20.9001 36.35Z" fill="white"/>
<path fill-rule="evenodd" clip-rule="evenodd" d="M18.1 39.45H101.9C102.934 39.4513 103.925 39.8626 104.656 40.5937C105.387 41.3248 105.799 42.316 105.8 43.35V86.95C105.797 89.0179 104.975 91.0003 103.512 92.4625C102.05 93.9247 100.068 94.7474 98 94.75H22C19.9321 94.7474 17.9497 93.9247 16.4874 92.4625C15.0252 91.0003 14.2026 89.0179 14.2 86.95V43.35C14.2012 42.316 14.6125 41.3248 15.3436 40.5937C16.0747 39.8625 17.066 39.4513 18.1 39.45Z" fill="url(#paint0_linear_1_1311)"/>
</g>
<defs>
<linearGradient id="paint0_linear_1_1311" x1="59.9921" y1="94.7592" x2="59.9921" y2="39.4617" gradientUnits="userSpaceOnUse">
<stop stop-color="#1D77F2"/>
<stop offset="1" stop-color="#18C1FA"/>
</linearGradient>
<clipPath id="clip0_1_1311">
<rect width="120" height="120" fill="white"/>
</clipPath>
</defs>
</svg>
