<svg width="120" height="120" viewBox="0 0 120 120" fill="none" xmlns="http://www.w3.org/2000/svg">
<g clip-path="url(#clip0_1_125)">
<path fill-rule="evenodd" clip-rule="evenodd" d="M94.0001 120H26.0001C22.5838 120.007 19.1998 119.339 16.0422 118.035C12.8847 116.731 10.0157 114.816 7.60005 112.4C5.18437 109.984 3.26948 107.115 1.96528 103.958C0.661075 100.8 -0.0067749 97.4163 5.1812e-05 94.0001V26.0001C-0.0067749 22.5838 0.661075 19.1998 1.96528 16.0422C3.26948 12.8847 5.18437 10.0157 7.60005 7.60005C10.0157 5.18437 12.8847 3.26948 16.0422 1.96528C19.1998 0.661075 22.5838 -0.0067749 26.0001 5.1812e-05H94.0001C97.4163 -0.0067749 100.8 0.661075 103.958 1.96528C107.115 3.26948 109.984 5.18437 112.4 7.60005C114.816 10.0157 116.731 12.8847 118.035 16.0422C119.339 19.1998 120.007 22.5838 120 26.0001V94.0001C120.007 97.4163 119.339 100.8 118.035 103.958C116.731 107.115 114.816 109.984 112.4 112.4C109.984 114.816 107.115 116.731 103.958 118.035C100.8 119.339 97.4163 120.007 94.0001 120Z" fill="white"/>
<mask id="mask0_1_125" style="mask-type:luminance" maskUnits="userSpaceOnUse" x="0" y="0" width="121" height="121">
<path fill-rule="evenodd" clip-rule="evenodd" d="M94.0001 120H26.0001C22.5838 120.007 19.1998 119.339 16.0422 118.035C12.8847 116.731 10.0157 114.816 7.60005 112.4C5.18437 109.984 3.26948 107.115 1.96528 103.958C0.661075 100.8 -0.0067749 97.4163 5.1812e-05 94.0001V26.0001C-0.0067749 22.5838 0.661075 19.1998 1.96528 16.0422C3.26948 12.8847 5.18437 10.0157 7.60005 7.60005C10.0157 5.18437 12.8847 3.26948 16.0422 1.96528C19.1998 0.661075 22.5838 -0.0067749 26.0001 5.1812e-05H94.0001C97.4163 -0.0067749 100.8 0.661075 103.958 1.96528C107.115 3.26948 109.984 5.18437 112.4 7.60005C114.816 10.0157 116.731 12.8847 118.035 16.0422C119.339 19.1998 120.007 22.5838 120 26.0001V94.0001C120.007 97.4163 119.339 100.8 118.035 103.958C116.731 107.115 114.816 109.984 112.4 112.4C109.984 114.816 107.115 116.731 103.958 118.035C100.8 119.339 97.4163 120.007 94.0001 120Z" fill="white"/>
</mask>
<g mask="url(#mask0_1_125)">
<path d="M142.008 -0.0119934H-17.9919V29.988H142.008V-0.0119934Z" fill="url(#paint0_linear_1_125)"/>
</g>
<mask id="mask1_1_125" style="mask-type:luminance" maskUnits="userSpaceOnUse" x="0" y="0" width="121" height="121">
<path fill-rule="evenodd" clip-rule="evenodd" d="M94.0001 120H26.0001C22.5838 120.007 19.1998 119.339 16.0422 118.035C12.8847 116.731 10.0157 114.816 7.60005 112.4C5.18437 109.984 3.26948 107.115 1.96528 103.958C0.661075 100.8 -0.0067749 97.4163 5.1812e-05 94.0001V26.0001C-0.0067749 22.5838 0.661075 19.1998 1.96528 16.0422C3.26948 12.8847 5.18437 10.0157 7.60005 7.60005C10.0157 5.18437 12.8847 3.26948 16.0422 1.96528C19.1998 0.661075 22.5838 -0.0067749 26.0001 5.1812e-05H94.0001C97.4163 -0.0067749 100.8 0.661075 103.958 1.96528C107.115 3.26948 109.984 5.18437 112.4 7.60005C114.816 10.0157 116.731 12.8847 118.035 16.0422C119.339 19.1998 120.007 22.5838 120 26.0001V94.0001C120.007 97.4163 119.339 100.8 118.035 103.958C116.731 107.115 114.816 109.984 112.4 112.4C109.984 114.816 107.115 116.731 103.958 118.035C100.8 119.339 97.4163 120.007 94.0001 120Z" fill="white"/>
</mask>
<g mask="url(#mask1_1_125)">
<mask id="mask2_1_125" style="mask-type:luminance" maskUnits="userSpaceOnUse" x="0" y="-1" width="121" height="121">
<path fill-rule="evenodd" clip-rule="evenodd" d="M120.008 82.6199C120.008 84.0465 120.008 85.4731 120 86.9017C119.994 88.1029 119.979 89.3042 119.946 90.5054C119.912 93.134 119.679 95.7563 119.247 98.3495C118.799 100.948 117.96 103.463 116.76 105.811C115.55 108.161 113.975 110.304 112.094 112.162C110.207 114.027 108.038 115.585 105.668 116.777C103.288 117.964 100.746 118.793 98.124 119.235C95.4992 119.662 92.8463 119.893 90.1872 119.926C85.0967 119.988 83.6537 119.988 82.2106 119.988H37.8081C32.2617 119.971 31.0466 119.959 29.8315 119.926C27.1724 119.893 24.5195 119.662 21.8947 119.235C19.2726 118.793 16.7304 117.964 14.3511 116.777C9.58732 114.385 5.70336 110.547 3.25623 105.811C2.05818 103.463 1.21993 100.947 0.769571 98.3495C0.338319 95.7563 0.105497 93.134 0.0731308 90.5054C0.0396708 89.3042 0.0250308 88.1029 0.0187608 86.9017C0.00830078 85.4731 0.00830078 84.0465 0.00830078 82.6199V37.3559C0.00830078 35.9293 0.00830078 34.5007 0.0187608 33.0762C0.0250308 31.8729 0.0396708 30.6717 0.0731308 29.4705C0.105497 26.8412 0.338319 24.2182 0.769571 21.6243C1.21994 19.0272 2.05819 16.5126 3.25623 14.1648C5.70336 9.42929 9.58732 5.59044 14.3511 3.19878C16.7304 2.01138 19.2726 1.18296 21.8947 0.740497C24.5195 0.313422 27.1724 0.0826194 29.8315 0.0500066C34.922 -0.0119934 36.365 -0.0119934 37.8081 -0.0119934H81.0269L65.6321 -0.00579341L82.2106 -0.0119934C87.7549 0.00454659 88.97 0.0170066 90.1872 0.0500066C92.8463 0.082636 95.4992 0.313456 98.124 0.740547C100.746 1.183 103.288 2.01141 105.668 3.19881C108.039 4.39059 110.207 5.94783 112.094 7.81347C113.976 9.67061 115.551 11.8144 116.76 14.1648C117.96 16.5119 118.799 19.0268 119.247 21.6244C119.679 24.2182 119.912 26.8412 119.946 29.4705C119.979 30.6718 119.994 31.873 120 33.0763C120.008 34.5008 120.008 35.9294 120.008 37.356V82.6199Z" fill="white"/>
</mask>
<g mask="url(#mask2_1_125)">
<path d="M120.008 58.988H0.00793457V60.988H120.008V58.988Z" fill="#C7C7CC"/>
</g>
<mask id="mask3_1_125" style="mask-type:luminance" maskUnits="userSpaceOnUse" x="0" y="-1" width="121" height="121">
<path fill-rule="evenodd" clip-rule="evenodd" d="M120.008 82.6199C120.008 84.0465 120.008 85.4731 120 86.9017C119.994 88.1029 119.979 89.3042 119.946 90.5054C119.912 93.134 119.679 95.7563 119.247 98.3495C118.799 100.948 117.96 103.463 116.76 105.811C115.55 108.161 113.975 110.304 112.094 112.162C110.207 114.027 108.038 115.585 105.668 116.777C103.288 117.964 100.746 118.793 98.124 119.235C95.4992 119.662 92.8463 119.893 90.1872 119.926C85.0967 119.988 83.6537 119.988 82.2106 119.988H37.8081C32.2617 119.971 31.0466 119.959 29.8315 119.926C27.1724 119.893 24.5195 119.662 21.8947 119.235C19.2726 118.793 16.7304 117.964 14.3511 116.777C9.58732 114.385 5.70336 110.547 3.25623 105.811C2.05818 103.463 1.21993 100.947 0.769571 98.3495C0.338319 95.7563 0.105497 93.134 0.0731308 90.5054C0.0396708 89.3042 0.0250308 88.1029 0.0187608 86.9017C0.00830078 85.4731 0.00830078 84.0465 0.00830078 82.6199V37.3559C0.00830078 35.9293 0.00830078 34.5007 0.0187608 33.0762C0.0250308 31.8729 0.0396708 30.6717 0.0731308 29.4705C0.105497 26.8412 0.338319 24.2182 0.769571 21.6243C1.21994 19.0272 2.05819 16.5126 3.25623 14.1648C5.70336 9.42929 9.58732 5.59044 14.3511 3.19878C16.7304 2.01138 19.2726 1.18296 21.8947 0.740497C24.5195 0.313422 27.1724 0.0826194 29.8315 0.0500066C34.922 -0.0119934 36.365 -0.0119934 37.8081 -0.0119934H81.0269L65.6321 -0.00579341L82.2106 -0.0119934C87.7549 0.00454659 88.97 0.0170066 90.1872 0.0500066C92.8463 0.082636 95.4992 0.313456 98.124 0.740547C100.746 1.183 103.288 2.01141 105.668 3.19881C108.039 4.39059 110.207 5.94783 112.094 7.81347C113.976 9.67061 115.551 11.8144 116.76 14.1648C117.96 16.5119 118.799 19.0268 119.247 21.6244C119.679 24.2182 119.912 26.8412 119.946 29.4705C119.979 30.6718 119.994 31.873 120 33.0763C120.008 34.5008 120.008 35.9294 120.008 37.356V82.6199Z" fill="white"/>
</mask>
<g mask="url(#mask3_1_125)">
<path d="M120.008 88.988H0.00793457V90.988H120.008V88.988Z" fill="#C7C7CC"/>
</g>
<path d="M7.49995 38.288C8.49406 38.288 9.29995 37.4821 9.29995 36.488C9.29995 35.4939 8.49406 34.688 7.49995 34.688C6.50584 34.688 5.69995 35.4939 5.69995 36.488C5.69995 37.4821 6.50584 38.288 7.49995 38.288Z" fill="#C7C7CC"/>
<path d="M14.5 38.288C15.4941 38.288 16.3 37.4821 16.3 36.488C16.3 35.4939 15.4941 34.688 14.5 34.688C13.5058 34.688 12.7 35.4939 12.7 36.488C12.7 37.4821 13.5058 38.288 14.5 38.288Z" fill="#C7C7CC"/>
<path d="M21.5 38.288C22.4941 38.288 23.2999 37.4821 23.2999 36.488C23.2999 35.4939 22.4941 34.688 21.5 34.688C20.5058 34.688 19.7 35.4939 19.7 36.488C19.7 37.4821 20.5058 38.288 21.5 38.288Z" fill="#C7C7CC"/>
<path d="M0.499951 38.288C1.49406 38.288 2.29995 37.4821 2.29995 36.488C2.29995 35.4939 1.49406 34.688 0.499951 34.688C-0.494161 34.688 -1.30005 35.4939 -1.30005 36.488C-1.30005 37.4821 -0.494161 38.288 0.499951 38.288Z" fill="#C7C7CC"/>
<path d="M35.5 38.288C36.4941 38.288 37.2999 37.4821 37.2999 36.488C37.2999 35.4939 36.4941 34.688 35.5 34.688C34.5058 34.688 33.7 35.4939 33.7 36.488C33.7 37.4821 34.5058 38.288 35.5 38.288Z" fill="#C7C7CC"/>
<path d="M42.5 38.288C43.4941 38.288 44.2999 37.4821 44.2999 36.488C44.2999 35.4939 43.4941 34.688 42.5 34.688C41.5058 34.688 40.7 35.4939 40.7 36.488C40.7 37.4821 41.5058 38.288 42.5 38.288Z" fill="#C7C7CC"/>
<path d="M49.5 38.288C50.4941 38.288 51.2999 37.4821 51.2999 36.488C51.2999 35.4939 50.4941 34.688 49.5 34.688C48.5058 34.688 47.7 35.4939 47.7 36.488C47.7 37.4821 48.5058 38.288 49.5 38.288Z" fill="#C7C7CC"/>
<path d="M28.5 38.288C29.4941 38.288 30.2999 37.4821 30.2999 36.488C30.2999 35.4939 29.4941 34.688 28.5 34.688C27.5058 34.688 26.7 35.4939 26.7 36.488C26.7 37.4821 27.5058 38.288 28.5 38.288Z" fill="#C7C7CC"/>
<path d="M63.5 38.288C64.4941 38.288 65.3 37.4821 65.3 36.488C65.3 35.4939 64.4941 34.688 63.5 34.688C62.5058 34.688 61.7 35.4939 61.7 36.488C61.7 37.4821 62.5058 38.288 63.5 38.288Z" fill="#C7C7CC"/>
<path d="M70.5 38.288C71.4941 38.288 72.3 37.4821 72.3 36.488C72.3 35.4939 71.4941 34.688 70.5 34.688C69.5058 34.688 68.7 35.4939 68.7 36.488C68.7 37.4821 69.5058 38.288 70.5 38.288Z" fill="#C7C7CC"/>
<path d="M77.5 38.288C78.4941 38.288 79.3 37.4821 79.3 36.488C79.3 35.4939 78.4941 34.688 77.5 34.688C76.5058 34.688 75.7 35.4939 75.7 36.488C75.7 37.4821 76.5058 38.288 77.5 38.288Z" fill="#C7C7CC"/>
<path d="M56.5 38.288C57.4941 38.288 58.2999 37.4821 58.2999 36.488C58.2999 35.4939 57.4941 34.688 56.5 34.688C55.5058 34.688 54.7 35.4939 54.7 36.488C54.7 37.4821 55.5058 38.288 56.5 38.288Z" fill="#C7C7CC"/>
<path d="M91.5 38.288C92.4941 38.288 93.3 37.4821 93.3 36.488C93.3 35.4939 92.4941 34.688 91.5 34.688C90.5058 34.688 89.7 35.4939 89.7 36.488C89.7 37.4821 90.5058 38.288 91.5 38.288Z" fill="#C7C7CC"/>
<path d="M98.5 38.288C99.4941 38.288 100.3 37.4821 100.3 36.488C100.3 35.4939 99.4941 34.688 98.5 34.688C97.5058 34.688 96.7 35.4939 96.7 36.488C96.7 37.4821 97.5058 38.288 98.5 38.288Z" fill="#C7C7CC"/>
<path d="M105.5 38.288C106.494 38.288 107.3 37.4821 107.3 36.488C107.3 35.4939 106.494 34.688 105.5 34.688C104.506 34.688 103.7 35.4939 103.7 36.488C103.7 37.4821 104.506 38.288 105.5 38.288Z" fill="#C7C7CC"/>
<path d="M84.5 38.288C85.4941 38.288 86.3 37.4821 86.3 36.488C86.3 35.4939 85.4941 34.688 84.5 34.688C83.5058 34.688 82.7 35.4939 82.7 36.488C82.7 37.4821 83.5058 38.288 84.5 38.288Z" fill="#C7C7CC"/>
<path d="M112.5 38.288C113.494 38.288 114.3 37.4821 114.3 36.488C114.3 35.4939 113.494 34.688 112.5 34.688C111.506 34.688 110.7 35.4939 110.7 36.488C110.7 37.4821 111.506 38.288 112.5 38.288Z" fill="#C7C7CC"/>
<path d="M119.5 38.288C120.494 38.288 121.3 37.4821 121.3 36.488C121.3 35.4939 120.494 34.688 119.5 34.688C118.506 34.688 117.7 35.4939 117.7 36.488C117.7 37.4821 118.506 38.288 119.5 38.288Z" fill="#C7C7CC"/>
<path d="M120 29.988H0V32.988H120V29.988Z" fill="url(#paint1_linear_1_125)"/>
</g>
</g>
<defs>
<linearGradient id="paint0_linear_1_125" x1="61.9801" y1="-0.0149934" x2="61.9801" y2="29.985" gradientUnits="userSpaceOnUse">
<stop stop-color="#FFDF60"/>
<stop offset="1" stop-color="#FFCD01"/>
</linearGradient>
<linearGradient id="paint1_linear_1_125" x1="60" y1="29.988" x2="60" y2="32.988" gradientUnits="userSpaceOnUse">
<stop stop-opacity="0.3"/>
<stop offset="1" stop-color="white" stop-opacity="0"/>
</linearGradient>
<clipPath id="clip0_1_125">
<rect width="120" height="120" fill="white"/>
</clipPath>
</defs>
</svg>
