<svg width="120" height="120" viewBox="0 0 120 120" fill="none" xmlns="http://www.w3.org/2000/svg">
<path fill-rule="evenodd" clip-rule="evenodd" d="M91.4062 0C108.75 0 120 11.25 120 28.5938V91.4062C120 108.75 108.75 120 91.4062 120H28.5938C11.25 120 0 108.75 0 91.4062V28.5938C0 11.25 11.25 0 28.5938 0H91.4062Z" fill="white"/>
<path fill-rule="evenodd" clip-rule="evenodd" d="M28.5938 0.5C20.0321 0.5 13.0184 3.27458 8.14653 8.14653L7.96975 7.96975L8.14653 8.14653C3.27458 13.0184 0.5 20.0321 0.5 28.5938V91.4062C0.5 99.9679 3.27458 106.981 8.14652 111.853C13.0184 116.725 20.0321 119.5 28.5938 119.5H91.4062C99.9679 119.5 106.981 116.725 111.853 111.853C116.725 106.981 119.5 99.9679 119.5 91.4062V28.5938C119.5 20.0321 116.725 13.0184 111.853 8.14652C106.981 3.27458 99.9679 0.5 91.4062 0.5H28.5938ZM7.79297 7.79297C12.7734 2.8125 19.9219 0 28.5938 0H91.4062C100.078 0 107.227 2.8125 112.207 7.79298C117.187 12.7734 120 19.9219 120 28.5938V91.4062C120 100.078 117.187 107.227 112.207 112.207C107.227 117.187 100.078 120 91.4062 120H28.5938C19.9219 120 12.7734 117.187 7.79298 112.207C2.8125 107.227 0 100.078 0 91.4062V28.5938C0 19.9219 2.8125 12.7734 7.79297 7.79297Z" fill="#A4A4A4"/>
<path opacity="0.8" fill-rule="evenodd" clip-rule="evenodd" d="M73.4004 23.2259C80.0008 16.6254 90.7023 16.6254 97.3028 23.2259C103.903 29.8263 103.903 40.5278 97.3028 47.1283L86.4987 57.9323C79.8983 64.5328 69.1968 64.5328 62.5963 57.9323C55.9958 51.3319 55.9958 40.6304 62.5963 34.0299L73.4004 23.2259Z" fill="url(#paint0_linear_1_13)"/>
<path opacity="0.8" fill-rule="evenodd" clip-rule="evenodd" d="M80.7421 43.1376C71.4077 43.1376 63.8406 50.7047 63.8406 60.0392C63.8406 69.3737 71.4077 76.9408 80.7422 76.9408H96.0214C105.356 76.9408 112.923 69.3737 112.923 60.0392C112.923 50.7047 105.356 43.1376 96.0214 43.1376H80.7421Z" fill="url(#paint1_linear_1_13)"/>
<path opacity="0.8" fill-rule="evenodd" clip-rule="evenodd" d="M100.007 43.5264C99.2603 44.8838 98.3148 46.1604 97.1709 47.3134L86.6305 57.9374C80.4585 64.1584 70.6854 64.5461 64.0574 59.135C64.5245 50.1639 71.8994 43.0037 80.9287 43.0037H95.835C97.2753 43.0037 98.6732 43.1851 100.007 43.5264Z" fill="url(#paint2_linear_1_13)"/>
<path opacity="0.8" fill-rule="evenodd" clip-rule="evenodd" d="M73.4499 97.1858C80.0504 103.786 90.7519 103.786 97.3523 97.1858C103.953 90.5853 103.953 79.8839 97.3523 73.2834L86.5483 62.4793C79.9478 55.8789 69.2463 55.8789 62.6459 62.4793C56.0454 69.0798 56.0454 79.7813 62.6459 86.3818L73.4499 97.1858Z" fill="url(#paint3_linear_1_13)"/>
<path opacity="0.8" fill-rule="evenodd" clip-rule="evenodd" d="M64.0793 61.2994C64.7182 70.1195 72.0099 77.075 80.9287 77.075H95.835C97.2312 77.075 98.5879 76.9038 99.8855 76.5811C99.1669 75.3371 98.2786 74.1648 97.2205 73.0984L86.6802 62.4744C80.4995 56.2447 70.7078 55.8646 64.0793 61.2994Z" fill="url(#paint4_linear_1_13)"/>
<path opacity="0.8" fill-rule="evenodd" clip-rule="evenodd" d="M83.8718 60.1897C78.3186 63.82 71.1077 63.8251 65.5483 60.222C71.0979 56.5973 78.3087 56.5809 83.8718 60.1897Z" fill="#0D5309"/>
<path opacity="0.8" d="M76.9385 80.2858C76.9385 70.9513 69.3714 63.3842 60.0369 63.3842C50.7024 63.3842 43.1353 70.9513 43.1353 80.2858V95.565C43.1353 104.9 50.7024 112.467 60.0369 112.467C69.3714 112.467 76.9385 104.9 76.9385 95.565V80.2858Z" fill="url(#paint5_linear_1_13)"/>
<path opacity="0.8" fill-rule="evenodd" clip-rule="evenodd" d="M76.4142 99.6578C75.3127 98.9747 74.2723 98.1523 73.318 97.1905L62.7777 86.5665C56.4961 80.235 56.1969 70.1746 61.8628 63.4822C70.3385 64.3985 76.9384 71.6215 76.9384 80.4129V95.4375C76.9384 96.8942 76.7564 98.3082 76.4142 99.6578Z" fill="url(#paint6_linear_1_13)"/>
<path opacity="0.8" fill-rule="evenodd" clip-rule="evenodd" d="M64.4878 63.9803C65.9107 70.0442 70.5454 74.8545 76.4864 76.4809C75.0651 70.4151 70.4272 65.608 64.4878 63.9803Z" fill="#0F4525"/>
<path opacity="0.8" fill-rule="evenodd" clip-rule="evenodd" d="M46.7439 97.2155C40.1435 103.816 29.442 103.816 22.8415 97.2155C16.241 90.6151 16.241 79.9136 22.8415 73.3131L33.6455 62.5091C40.246 55.9086 50.9475 55.9086 57.548 62.5091C64.1485 69.1095 64.1485 79.811 57.548 86.4115L46.7439 97.2155Z" fill="url(#paint7_linear_1_13)"/>
<path opacity="0.8" fill-rule="evenodd" clip-rule="evenodd" d="M58.2982 63.4735C49.7956 64.3519 43.1353 71.6008 43.1353 80.413V95.4376C43.1353 96.9273 43.3248 98.372 43.6808 99.7486C44.8189 99.0536 45.893 98.2109 46.8758 97.2204L57.4161 86.5964C63.7098 80.2528 63.998 70.1658 58.2982 63.4735Z" fill="url(#paint8_linear_1_13)"/>
<path opacity="0.8" fill-rule="evenodd" clip-rule="evenodd" d="M60.1055 83.0715C57.074 77.8134 57.0704 71.2745 60.0883 66.0118C63.1177 71.2696 63.1255 77.8086 60.1055 83.0715Z" fill="#242161"/>
<path opacity="0.8" fill-rule="evenodd" clip-rule="evenodd" d="M39.5259 43.2545C48.8604 43.2545 56.4275 50.8216 56.4275 60.1561C56.4275 69.4906 48.8604 77.0577 39.5259 77.0577H24.2467C14.9122 77.0577 7.34511 69.4906 7.34511 60.1561C7.34511 50.8216 14.9122 43.2545 24.2467 43.2545H39.5259Z" fill="url(#paint9_linear_1_13)"/>
<path opacity="0.8" fill-rule="evenodd" clip-rule="evenodd" d="M20.2739 76.6708C20.9986 75.4044 21.8984 74.2117 22.9733 73.1282L33.5137 62.5042C39.718 56.2506 49.5611 55.8916 56.1905 61.3919C55.5634 70.2237 48.2665 77.192 39.3394 77.192H24.4331C22.9979 77.192 21.6045 77.0111 20.2739 76.6708Z" fill="url(#paint10_linear_1_13)"/>
<path opacity="0.8" fill-rule="evenodd" clip-rule="evenodd" d="M55.8211 63.9198C49.7205 65.502 44.9404 70.4363 43.5481 76.66C49.6593 75.082 54.4299 70.1468 55.8211 63.9198Z" fill="#501232"/>
<path opacity="0.8" fill-rule="evenodd" clip-rule="evenodd" d="M46.6206 23.2126C40.0202 16.6121 29.3187 16.6121 22.7182 23.2126C16.1177 29.8131 16.1177 40.5145 22.7182 47.115L33.5223 57.9191C40.1227 64.5195 50.8242 64.5195 57.4247 57.919C64.0252 51.3186 64.0252 40.6171 57.4247 34.0166L46.6206 23.2126Z" fill="url(#paint11_linear_1_13)"/>
<path opacity="0.8" fill-rule="evenodd" clip-rule="evenodd" d="M56.1912 58.9323C55.5678 50.1114 48.2613 43.1207 39.3395 43.1207H24.4332C22.938 43.1207 21.4885 43.3162 20.1084 43.6832C20.8402 44.9771 21.7541 46.1953 22.85 47.2999L33.3903 57.9239C39.6335 64.2166 49.561 64.5408 56.1912 58.9323Z" fill="url(#paint12_linear_1_13)"/>
<path opacity="0.8" fill-rule="evenodd" clip-rule="evenodd" d="M36.269 60.254C41.7993 56.6368 48.9745 56.6157 54.5253 60.1741C48.9988 63.7856 41.8235 63.8178 36.269 60.254Z" fill="#7F0D07"/>
<path opacity="0.8" d="M77.0578 24.7229C77.0578 15.3885 69.4907 7.82135 60.1562 7.82135C50.8217 7.82135 43.2546 15.3885 43.2546 24.7229V40.0021C43.2546 49.3366 50.8217 56.9037 60.1562 56.9037C69.4907 56.9037 77.0578 49.3366 77.0578 40.0021V24.7229Z" fill="url(#paint13_linear_1_13)"/>
<path opacity="0.8" fill-rule="evenodd" clip-rule="evenodd" d="M76.5398 20.6465C75.3733 21.3502 74.2732 22.2083 73.2684 23.221L62.7281 33.845C56.4774 40.1454 56.1504 50.1381 61.7302 56.8305C70.3114 56.0293 77.0579 48.7438 77.0579 39.8747V24.8501C77.0579 23.3991 76.8781 21.9908 76.5398 20.6465Z" fill="url(#paint14_linear_1_13)"/>
<path opacity="0.8" fill-rule="evenodd" clip-rule="evenodd" d="M64.4319 56.3526C65.7994 50.1199 70.5597 45.1572 76.6618 43.5528C75.2957 49.7916 70.5285 54.7472 64.4319 56.3526Z" fill="#598000"/>
<path fill-rule="evenodd" clip-rule="evenodd" d="M43.7387 20.7919C44.8097 21.4647 45.8219 22.2699 46.7524 23.2077L57.2927 33.8317C63.5389 40.1275 63.8699 50.1104 58.3027 56.8027C49.8402 55.8737 43.2546 48.6568 43.2546 39.8749V24.8503C43.2546 23.4517 43.4224 22.0925 43.7387 20.7919Z" fill="url(#paint15_linear_1_13)"/>
<path opacity="0.8" fill-rule="evenodd" clip-rule="evenodd" d="M60.0143 37.4128C57.0352 42.6396 57.0347 49.1149 60.0066 54.3436C62.9837 49.117 62.9883 42.6417 60.0143 37.4128Z" fill="#A54F00"/>
<path opacity="0.8" fill-rule="evenodd" clip-rule="evenodd" d="M55.8062 56.3349C54.4058 50.1905 49.7027 45.3023 43.6797 43.6892C45.0761 49.8449 49.78 54.7239 55.8062 56.3349Z" fill="#AA1500"/>
<defs>
<linearGradient id="paint0_linear_1_13" x1="85.3516" y1="11.2746" x2="50.6451" y2="45.9811" gradientUnits="userSpaceOnUse">
<stop stop-color="#FBE41F"/>
<stop offset="1" stop-color="#C4DA30"/>
</linearGradient>
<linearGradient id="paint1_linear_1_13" x1="63.8406" y1="43.1376" x2="112.923" y2="43.1376" gradientUnits="userSpaceOnUse">
<stop stop-color="#73CC81"/>
<stop offset="1" stop-color="#C7DB44"/>
</linearGradient>
<linearGradient id="paint2_linear_1_13" x1="83.0113" y1="37.108" x2="65.2937" y2="60.6949" gradientUnits="userSpaceOnUse">
<stop stop-color="#A4BC0F"/>
<stop offset="1" stop-color="#5BAA22"/>
</linearGradient>
<linearGradient id="paint3_linear_1_13" x1="85.4011" y1="109.137" x2="50.6947" y2="74.4306" gradientUnits="userSpaceOnUse">
<stop stop-color="#6AC284"/>
<stop offset="1" stop-color="#6ABBE7"/>
</linearGradient>
<linearGradient id="paint4_linear_1_13" x1="112.706" y1="67.2841" x2="92.7511" y2="41.1559" gradientUnits="userSpaceOnUse">
<stop stop-color="#4BA03A"/>
<stop offset="1" stop-color="#2E8F6D"/>
</linearGradient>
<linearGradient id="paint5_linear_1_13" x1="43.1353" y1="63.3842" x2="43.1353" y2="112.466" gradientUnits="userSpaceOnUse">
<stop stop-color="#928EC4"/>
<stop offset="1" stop-color="#68B6E3"/>
</linearGradient>
<linearGradient id="paint6_linear_1_13" x1="53.2956" y1="76.8164" x2="79.7316" y2="95.7599" gradientUnits="userSpaceOnUse">
<stop stop-color="#3E6AAD"/>
<stop offset="1" stop-color="#34808E"/>
</linearGradient>
<linearGradient id="paint7_linear_1_13" x1="34.7927" y1="109.167" x2="69.4992" y2="74.4603" gradientUnits="userSpaceOnUse">
<stop stop-color="#958DC2"/>
<stop offset="1" stop-color="#CD8CBD"/>
</linearGradient>
<linearGradient id="paint8_linear_1_13" x1="48.3075" y1="49.5263" x2="21.3326" y2="68.1227" gradientUnits="userSpaceOnUse">
<stop stop-color="#735095"/>
<stop offset="1" stop-color="#5260A6"/>
</linearGradient>
<linearGradient id="paint9_linear_1_13" x1="56.4275" y1="43.2545" x2="7.34511" y2="43.2545" gradientUnits="userSpaceOnUse">
<stop stop-color="#F56270"/>
<stop offset="1" stop-color="#CE8BBC"/>
</linearGradient>
<linearGradient id="paint10_linear_1_13" x1="36.867" y1="52.6443" x2="23.7389" y2="76.4391" gradientUnits="userSpaceOnUse">
<stop stop-color="#BF3653"/>
<stop offset="1" stop-color="#8D487C"/>
</linearGradient>
<linearGradient id="paint11_linear_1_13" x1="34.6694" y1="11.2614" x2="69.3759" y2="45.9678" gradientUnits="userSpaceOnUse">
<stop stop-color="#F15F6B"/>
<stop offset="1" stop-color="#F79948"/>
</linearGradient>
<linearGradient id="paint12_linear_1_13" x1="71.3915" y1="49.8973" x2="53.0358" y2="21.692" gradientUnits="userSpaceOnUse">
<stop stop-color="#DF1F07"/>
<stop offset="1" stop-color="#C51B1A"/>
</linearGradient>
<linearGradient id="paint13_linear_1_13" x1="43.2546" y1="7.82135" x2="43.2546" y2="56.9037" gradientUnits="userSpaceOnUse">
<stop stop-color="#FF8600"/>
<stop offset="1" stop-color="#FFE308"/>
</linearGradient>
<linearGradient id="paint14_linear_1_13" x1="67.4184" y1="4.85211" x2="39.0651" y2="22.1565" gradientUnits="userSpaceOnUse">
<stop stop-color="#EB9C09"/>
<stop offset="1" stop-color="#CDBF05"/>
</linearGradient>
<linearGradient id="paint15_linear_1_13" x1="33.761" y1="34.7931" x2="60.6025" y2="52.9933" gradientUnits="userSpaceOnUse">
<stop stop-color="#ED4103"/>
<stop offset="1" stop-color="#F77402"/>
</linearGradient>
</defs>
</svg>
