<svg width="120" height="120" viewBox="0 0 120 120" fill="none" xmlns="http://www.w3.org/2000/svg">
<g clip-path="url(#clip0_1_250)">
<path fill-rule="evenodd" clip-rule="evenodd" d="M5.17919e-05 94.0001V26.0001C-0.0067736 22.5838 0.661078 19.1998 1.96528 16.0422C3.26949 12.8847 5.18437 10.0157 7.60005 7.60005C10.0157 5.18437 12.8847 3.26949 16.0422 1.96528C19.1998 0.661078 22.5838 -0.0067736 26.0001 5.17919e-05H94.0001C97.4163 -0.0067736 100.8 0.661078 103.958 1.96528C107.115 3.26949 109.984 5.18437 112.4 7.60005C114.816 10.0157 116.731 12.8847 118.035 16.0422C119.339 19.1998 120.007 22.5838 120 26.0001V94.0001C120.007 97.4163 119.339 100.8 118.035 103.958C116.731 107.115 114.816 109.984 112.4 112.4C109.984 114.816 107.115 116.731 103.958 118.035C100.8 119.339 97.4163 120.007 94.0001 120H26.0001C22.5838 120.007 19.1998 119.339 16.0422 118.035C12.8847 116.731 10.0157 114.816 7.60005 112.4C5.18437 109.984 3.26949 107.115 1.96528 103.958C0.661078 100.8 -0.0067736 97.4163 5.17919e-05 94.0001Z" fill="white"/>
<path d="M60.1 112.1C88.874 112.1 112.2 88.774 112.2 60C112.2 31.226 88.874 7.89999 60.1 7.89999C31.326 7.89999 8 31.226 8 60C8 88.774 31.326 112.1 60.1 112.1Z" fill="url(#paint0_linear_1_250)"/>
<path d="M60.1023 107.48V99.4798" stroke="white" stroke-width="1.003" stroke-linecap="square"/>
<path d="M60.1023 20.4798V12.4798" stroke="white" stroke-width="1.003" stroke-linecap="square"/>
<path d="M51.832 106.786L53.2212 98.9077M66.9394 21.1079L68.3286 13.2294" stroke="white" stroke-width="1.003" stroke-linecap="square"/>
<path d="M43.8523 104.627L46.5885 97.1091M73.608 22.8733L76.3442 15.3558" stroke="white" stroke-width="1.003" stroke-linecap="square"/>
<path d="M36.312 101.166L40.312 94.2374M79.812 25.8214L83.812 18.8932" stroke="white" stroke-width="1.003" stroke-linecap="square"/>
<path d="M29.6116 96.3946L34.7539 90.2663M85.5341 29.7488L90.6764 23.6204" stroke="white" stroke-width="1.003" stroke-linecap="square"/>
<path d="M23.6624 90.5189L29.7907 85.3765M90.3082 34.5963L96.4366 29.454" stroke="white" stroke-width="1.003" stroke-linecap="square"/>
<path d="M18.9456 83.7213L25.8737 79.7213M94.2897 40.2213L101.218 36.2213" stroke="white" stroke-width="1.003" stroke-linecap="square"/>
<path d="M15.386 76.2519L22.9035 73.5157M97.1392 46.4961L104.657 43.76" stroke="white" stroke-width="1.003" stroke-linecap="square"/>
<path d="M13.2913 68.2989L21.1697 66.9097M98.9695 53.1915L106.848 51.8023" stroke="white" stroke-width="1.003" stroke-linecap="square"/>
<path d="M12.6182 60.0024H20.6182M99.6181 60.0024H107.618" stroke="white" stroke-width="1.003" stroke-linecap="square"/>
<path d="M13.3137 51.7845L21.1922 53.1737M98.992 66.8919L106.87 68.2811" stroke="white" stroke-width="1.003" stroke-linecap="square"/>
<path d="M15.47 43.7719L22.9875 46.508M97.2232 73.5276L104.741 76.2638" stroke="white" stroke-width="1.003" stroke-linecap="square"/>
<path d="M18.9282 36.3069L25.8564 40.3069M94.2724 79.8069L101.201 83.8069" stroke="white" stroke-width="1.003" stroke-linecap="square"/>
<path d="M23.678 29.4383L29.8063 34.5806M90.3238 85.3608L96.4522 90.5032" stroke="white" stroke-width="1.003" stroke-linecap="square"/>
<path d="M29.51 23.626L34.6523 29.7544M85.4325 90.2719L90.5748 96.4002" stroke="white" stroke-width="1.003" stroke-linecap="square"/>
<path d="M36.3203 18.8601L40.3203 25.7883M79.8203 94.2043L83.8203 101.132" stroke="white" stroke-width="1.003" stroke-linecap="square"/>
<path d="M43.8535 15.359L46.5897 22.8765M73.6093 97.1122L76.3454 104.63" stroke="white" stroke-width="1.003" stroke-linecap="square"/>
<path d="M51.802 13.2917L53.1912 21.1702M66.9094 98.97L68.2985 106.848" stroke="white" stroke-width="1.003" stroke-linecap="square"/>
<path d="M55.9368 107.308L56.2854 103.323M63.868 16.654L64.2166 12.6692" stroke="white" stroke-width="1.003" stroke-linecap="square"/>
<path d="M47.8203 105.929L48.8556 102.065M71.3728 18.0294L72.4081 14.1656" stroke="white" stroke-width="1.003" stroke-linecap="square"/>
<path d="M39.9983 103.018L41.6888 99.3925M78.4566 20.5437L80.147 16.9185" stroke="white" stroke-width="1.003" stroke-linecap="square"/>
<path d="M32.8401 98.9271L35.1344 95.6505M85.0355 24.3843L87.3298 21.1077" stroke="white" stroke-width="1.003" stroke-linecap="square"/>
<path d="M26.5405 93.5913L29.369 90.7629M90.8872 29.2446L93.7157 26.4162" stroke="white" stroke-width="1.003" stroke-linecap="square"/>
<path d="M21.1914 87.2943L24.468 85M95.7342 35.0988L99.0109 32.8045" stroke="white" stroke-width="1.003" stroke-linecap="square"/>
<path d="M17.0613 80.0891L20.6865 78.3986M99.5353 41.6308L103.161 39.9403" stroke="white" stroke-width="1.003" stroke-linecap="square"/>
<path d="M14.2039 72.3268L18.0676 71.2915M102.103 48.7742L105.967 47.739" stroke="white" stroke-width="1.003" stroke-linecap="square"/>
<path d="M12.7368 64.1523L16.7216 63.8037M103.391 56.2211L107.375 55.8725" stroke="white" stroke-width="1.003" stroke-linecap="square"/>
<path d="M12.7712 55.8724L16.756 56.2211M103.425 63.8036L107.41 64.1522" stroke="white" stroke-width="1.003" stroke-linecap="square"/>
<path d="M14.1455 47.7533L18.0092 48.7885M102.045 71.3058L105.908 72.3411" stroke="white" stroke-width="1.003" stroke-linecap="square"/>
<path d="M17.0281 39.9209L20.6533 41.6113M99.5021 78.3791L103.127 80.0696" stroke="white" stroke-width="1.003" stroke-linecap="square"/>
<path d="M21.175 32.8001L24.4517 35.0944M95.7179 84.9956L98.9945 87.2899" stroke="white" stroke-width="1.003" stroke-linecap="square"/>
<path d="M26.5359 26.4434L29.3643 29.2718M90.8826 90.7901L93.711 93.6185" stroke="white" stroke-width="1.003" stroke-linecap="square"/>
<path d="M32.7893 21.0837L35.0836 24.3603M84.9848 95.6265L87.2791 98.9032" stroke="white" stroke-width="1.003" stroke-linecap="square"/>
<path d="M40.0227 16.989L41.7132 20.6142M78.4809 99.463L80.1714 103.088" stroke="white" stroke-width="1.003" stroke-linecap="square"/>
<path d="M47.7737 14.1725L48.809 18.0362M71.3262 102.072L72.3615 105.935" stroke="white" stroke-width="1.003" stroke-linecap="square"/>
<path d="M55.895 12.7109L56.2436 16.6957M63.8262 103.365L64.1748 107.349" stroke="white" stroke-width="1.003" stroke-linecap="square"/>
<path fill-rule="evenodd" clip-rule="evenodd" d="M97.0701 29.06L55.9701 55.36L23.0701 91.06L64.3701 65.36L97.0701 29.06Z" fill="white"/>
<path fill-rule="evenodd" clip-rule="evenodd" d="M97.07 29.06L55.97 55.36L64.37 65.36L97.07 29.06Z" fill="#FF3B30"/>
</g>
<defs>
<linearGradient id="paint0_linear_1_250" x1="60.0991" y1="112.114" x2="60.0991" y2="7.89056" gradientUnits="userSpaceOnUse">
<stop stop-color="#1E6FF1"/>
<stop offset="1" stop-color="#28CEFB"/>
</linearGradient>
<clipPath id="clip0_1_250">
<rect width="120" height="120" fill="white"/>
</clipPath>
</defs>
</svg>
