<svg width="120" height="120" viewBox="0 0 120 120" fill="none" xmlns="http://www.w3.org/2000/svg">
<g clip-path="url(#clip0_1_45)">
<path d="M26.0001 5.17919e-05H94.0001C97.4163 -0.0067736 100.8 0.661078 103.958 1.96528C107.115 3.26949 109.984 5.18437 112.4 7.60005C114.816 10.0157 116.731 12.8847 118.035 16.0422C119.339 19.1998 120.007 22.5838 120 26.0001V94.0001C120.007 97.4163 119.339 100.8 118.035 103.958C116.731 107.115 114.816 109.984 112.4 112.4C109.984 114.816 107.115 116.731 103.958 118.035C100.8 119.339 97.4163 120.007 94.0001 120H26.0001C22.5838 120.007 19.1998 119.339 16.0422 118.035C12.8847 116.731 10.0157 114.816 7.60005 112.4C5.18437 109.984 3.26949 107.115 1.96528 103.958C0.661078 100.8 -0.0067736 97.4163 5.17919e-05 94.0001V26.0001C-0.0067736 22.5838 0.661078 19.1998 1.96528 16.0422C3.26949 12.8847 5.18437 10.0157 7.60005 7.60005C10.0157 5.18437 12.8847 3.26949 16.0422 1.96528C19.1998 0.661078 22.5838 -0.0067736 26.0001 5.17919e-05Z" fill="url(#paint0_linear_1_45)"/>
<path d="M38.5 70C50.3741 70 60 60.3741 60 48.5C60 36.6259 50.3741 27 38.5 27C26.6259 27 17 36.6259 17 48.5C17 60.3741 26.6259 70 38.5 70Z" fill="url(#paint1_linear_1_45)"/>
<path opacity="0.88" fill-rule="evenodd" clip-rule="evenodd" d="M43 90C39.0607 89.8762 35.2955 88.3479 32.3841 85.6913C29.4728 83.0346 27.6073 79.4246 27.1244 75.513C26.6415 71.6015 27.573 67.6462 29.7508 64.3612C31.9286 61.0763 35.2091 58.6782 39 57.6C39.0944 52.6541 40.9317 47.9004 44.188 44.1765C47.4444 40.4527 51.9107 37.9979 56.7998 37.2448C61.6889 36.4917 66.6869 37.4887 70.9129 40.06C75.1389 42.6313 78.3216 46.6118 79.9 51.3C81.0897 51.1009 82.2938 51.0005 83.5 51C88.6717 51 93.6316 53.0545 97.2886 56.7114C100.946 60.3684 103 65.3283 103 70.5C103 75.6717 100.946 80.6316 97.2886 84.2886C93.6316 87.9456 88.6717 90 83.5 90H43Z" fill="white"/>
</g>
<defs>
<linearGradient id="paint0_linear_1_45" x1="60.0001" y1="5.1792e-05" x2="60.0001" y2="120" gradientUnits="userSpaceOnUse">
<stop stop-color="#1D6FF2"/>
<stop offset="1" stop-color="#1AC8FC"/>
</linearGradient>
<linearGradient id="paint1_linear_1_45" x1="38.5105" y1="26.9915" x2="38.5105" y2="69.9915" gradientUnits="userSpaceOnUse">
<stop stop-color="#FFC700"/>
<stop offset="1" stop-color="#FFEA00"/>
</linearGradient>
<clipPath id="clip0_1_45">
<rect width="120" height="120" fill="white"/>
</clipPath>
</defs>
</svg>
